<?xml version="1.0" encoding="UTF-8"?>
<!-- Generator: Adobe Illustrator 16.0.0, SVG Export Plug-In . SVG Version: 6.00 Build 0)  -->
<!DOCTYPE svg PUBLIC "-//W3C//DTD SVG 1.1//EN" "http://www.w3.org/Graphics/SVG/1.1/DTD/svg11.dtd">
<svg version="1.1" id="Layer_1" xmlns="http://www.w3.org/2000/svg" xmlns:xlink="http://www.w3.org/1999/xlink" x="0px" y="0px" width="116.146px" height="40.371px" viewBox="0 0 116.146 40.371" enable-background="new 0 0 116.146 40.371" xml:space="preserve">
<g>
	<path fill="#000000" d="M0-14.833c0-1.319,0.251-2.665,0.754-4.037s1.219-2.672,2.146-3.897c0.928-1.227,2.046-2.321,3.354-3.283   c1.31-0.963,2.77-1.692,4.38-2.19c-0.83-0.674-1.605-1.383-2.328-2.125c-0.724-0.743-1.354-1.502-1.891-2.279   s-0.959-1.558-1.267-2.345c-0.309-0.787-0.461-1.571-0.461-2.352c0-1.009,0.109-1.969,0.33-2.879c0.22-0.91,0.521-1.753,0.907-2.53   c0.387-0.776,0.843-1.479,1.37-2.107s1.095-1.162,1.699-1.603c0.605-0.44,1.238-0.779,1.897-1.017   c0.658-0.237,1.32-0.356,1.984-0.356c0.879,0,1.727,0.227,2.542,0.681c0.816,0.454,1.541,1.175,2.175,2.163   c0.635,0.988,1.144,2.266,1.523,3.836c0.381,1.57,0.571,3.466,0.571,5.688c0,0.669-0.096,1.874-0.284,3.614   c-0.189,1.74-0.366,3.409-0.531,5.008c0.595,0.374,1.199,0.736,1.81,1.09c0.609,0.354,1.228,0.708,1.853,1.061   c0.126,0.079,0.286,0.172,0.476,0.28c0.19,0.108,0.375,0.224,0.558,0.347c0.181,0.123,0.334,0.246,0.461,0.367   c0.126,0.123,0.189,0.233,0.189,0.332c0,0.1-0.042,0.194-0.125,0.288c-0.083,0.093-0.181,0.183-0.293,0.265   c-0.111,0.084-0.225,0.155-0.337,0.213c-0.111,0.06-0.197,0.104-0.256,0.134c-0.167,0.088-0.381,0.133-0.645,0.133   c-0.547-0.01-1.189-0.117-1.927-0.322c-0.737-0.204-1.488-0.493-2.254-0.864c-0.43,1.806-0.944,3.457-1.545,4.955   c-0.6,1.498-1.257,2.844-1.97,4.033c-0.713,1.19-1.467,2.229-2.263,3.111s-1.603,1.618-2.417,2.203   C9.372-8.633,8.561-8.195,7.755-7.902c-0.806,0.293-1.58,0.439-2.321,0.439c-0.771,0-1.487-0.156-2.146-0.469   C2.628-8.243,2.053-8.708,1.566-9.327c-0.488-0.618-0.872-1.387-1.15-2.303C0.139-12.546,0-13.614,0-14.833z M3.75-13.894   c0,0.996,0.193,1.75,0.579,2.265c0.386,0.513,0.896,0.769,1.531,0.769c0.645,0,1.375-0.283,2.189-0.85   c0.815-0.566,1.634-1.443,2.454-2.631c0.821-1.188,1.604-2.694,2.352-4.521c0.747-1.826,1.379-4,1.896-6.521L14.21-25.72   c-0.996,0.195-1.945,0.535-2.849,1.019c-0.903,0.484-1.743,1.058-2.521,1.722c-0.775,0.666-1.477,1.396-2.102,2.191   s-1.16,1.6-1.604,2.41c-0.443,0.811-0.785,1.604-1.024,2.382C3.87-15.22,3.75-14.519,3.75-13.894z M8.438-38.284   c0,0.781,0.17,1.558,0.512,2.329c0.341,0.771,0.819,1.536,1.434,2.292c0.615,0.757,1.347,1.506,2.195,2.249   c0.849,0.742,1.785,1.474,2.811,2.197c0.113-1.364,0.233-2.793,0.359-4.289s0.189-3.088,0.189-4.777   c0-1.152-0.073-2.126-0.221-2.922c-0.146-0.796-0.344-1.443-0.593-1.941s-0.542-0.857-0.879-1.077   c-0.337-0.22-0.69-0.33-1.062-0.33c-0.361,0-0.729,0.088-1.1,0.264c-0.371,0.176-0.731,0.417-1.084,0.725   c-0.352,0.308-0.684,0.667-0.996,1.077c-0.312,0.41-0.584,0.847-0.812,1.311c-0.229,0.464-0.413,0.942-0.549,1.435   C8.507-39.248,8.438-38.761,8.438-38.284z"/>
	<path fill="#000000" d="M26.77-18.595c-0.912,0-1.71-0.17-2.395-0.508c-0.684-0.338-1.254-0.793-1.71-1.363   c-0.456-0.571-0.798-1.232-1.025-1.983c-0.229-0.751-0.343-1.539-0.343-2.364c0-0.539,0.103-1.183,0.307-1.93   s0.415-1.41,0.634-1.988c0.218-0.578,0.493-1.13,0.823-1.655c0.331-0.525,0.717-0.988,1.158-1.388   c0.442-0.4,0.938-0.718,1.486-0.954s1.159-0.354,1.829-0.354c0.547,0,1.056,0.088,1.525,0.264c0.469,0.175,0.878,0.421,1.225,0.739   c0.347,0.317,0.619,0.7,0.814,1.148c0.194,0.448,0.293,0.951,0.293,1.507c0,0.592-0.198,1.256-0.596,1.991   c-0.396,0.735-0.858,1.366-1.387,1.891s-1.157,0.993-1.886,1.404c-0.729,0.41-1.52,0.729-2.371,0.959   c0.146,0.258,0.292,0.473,0.434,0.645c0.143,0.172,0.287,0.307,0.435,0.401c0.146,0.096,0.302,0.163,0.463,0.2   c0.161,0.039,0.335,0.058,0.521,0.058c0.586,0,1.204-0.114,1.854-0.344c0.648-0.229,1.282-0.517,1.896-0.859   c0.615-0.343,1.196-0.719,1.743-1.125c0.547-0.405,1.011-0.79,1.393-1.153l1.89,1.92c-0.859,0.914-1.772,1.725-2.739,2.429   c-0.42,0.302-0.872,0.599-1.354,0.89c-0.483,0.291-0.991,0.551-1.523,0.777c-0.532,0.226-1.084,0.406-1.655,0.543   C27.938-18.663,27.356-18.595,26.77-18.595z M24.814-25.572c0.353,0,0.737-0.088,1.153-0.265s0.805-0.403,1.162-0.681   c0.357-0.276,0.708-0.648,1.052-1.116c0.343-0.468,0.515-0.855,0.515-1.16c0-0.43-0.081-0.783-0.243-1.06s-0.36-0.416-0.596-0.416   c-0.421,0-0.782,0.077-1.081,0.229s-0.549,0.351-0.75,0.594c-0.201,0.244-0.363,0.52-0.485,0.831   c-0.123,0.311-0.265,0.695-0.427,1.153s-0.252,0.835-0.272,1.131C24.822-26.036,24.814-25.783,24.814-25.572z"/>
	<path fill="#000000" d="M49.5-21.644c-0.692,0.57-1.377,1.078-2.051,1.524c-0.283,0.187-0.581,0.371-0.894,0.552   c-0.313,0.182-0.62,0.342-0.924,0.482c-0.303,0.141-0.597,0.254-0.882,0.342c-0.286,0.088-0.547,0.133-0.785,0.133   c-0.14,0-0.347-0.031-0.622-0.094c-0.274-0.062-0.574-0.189-0.899-0.381s-0.65-0.469-0.976-0.832   c-0.324-0.363-0.606-0.846-0.847-1.447c-0.362,0.373-0.747,0.729-1.153,1.065c-0.405,0.337-0.827,0.63-1.264,0.879   c-0.436,0.249-0.876,0.448-1.322,0.599c-0.445,0.15-0.894,0.227-1.344,0.227c-0.635,0-1.184-0.133-1.647-0.396   c-0.465-0.264-0.851-0.615-1.157-1.054c-0.309-0.438-0.537-0.937-0.688-1.492c-0.15-0.557-0.227-1.132-0.227-1.726   c0-0.635,0.081-1.276,0.242-1.926c0.16-0.648,0.396-1.278,0.702-1.888c0.309-0.61,0.649-1.247,1.025-1.911   c0.376-0.664,0.874-1.269,1.494-1.814c0.62-0.545,1.257-0.957,1.912-1.234c0.654-0.278,1.353-0.451,2.095-0.521   c0.029-1.269,0.164-2.387,0.404-3.354c0.24-0.967,0.499-2.007,0.774-3.12c0.276-1.114,0.634-2.139,1.07-3.077   c0.438-0.938,0.916-1.748,1.438-2.431c0.521-0.684,1.074-1.218,1.665-1.604c0.59-0.386,1.197-0.579,1.826-0.579   c0.459,0,0.851,0.12,1.173,0.359c0.321,0.24,0.583,0.558,0.783,0.954c0.201,0.396,0.345,0.856,0.433,1.379s0.132,1.064,0.132,1.621   c0,0.348-0.003,0.707-0.01,1.074c-0.028,1.402-0.244,2.707-0.649,3.915c-0.404,1.208-0.805,2.402-1.2,3.582   c-0.396,1.18-0.873,2.348-1.431,3.503c-0.854,1.768-1.396,2.967-1.63,3.601c-0.051,0.137-0.103,0.305-0.152,0.502   s-0.099,0.412-0.145,0.645s-0.083,0.469-0.114,0.711c-0.03,0.242-0.045,0.477-0.045,0.703c0,0.287,0.017,0.558,0.05,0.814   c0.033,0.258,0.088,0.486,0.164,0.688c0.076,0.203,0.178,0.362,0.307,0.481c0.129,0.117,0.288,0.178,0.479,0.178   c0.186,0,0.388-0.037,0.607-0.111c0.221-0.074,0.452-0.175,0.696-0.303c0.244-0.129,0.491-0.273,0.74-0.436   c0.249-0.164,0.491-0.328,0.725-0.496c0.537-0.394,1.1-0.842,1.686-1.344L49.5-21.644z M39.345-30.294   c-0.645,0.315-1.218,0.731-1.721,1.248s-0.923,1.199-1.26,2.046c-0.337,0.847-0.593,1.575-0.77,2.187   c-0.176,0.609-0.264,1.162-0.264,1.653c0,0.153,0.022,0.306,0.066,0.459s0.125,0.291,0.242,0.413   c0.116,0.122,0.282,0.223,0.498,0.298c0.215,0.077,0.492,0.115,0.835,0.115c0.176,0,0.349-0.039,0.521-0.117   c0.171-0.077,0.334-0.18,0.491-0.305c0.156-0.125,0.305-0.269,0.447-0.429c0.142-0.16,0.271-0.328,0.389-0.5   c0.273-0.398,0.522-0.85,0.748-1.352c-0.03-0.138-0.055-0.355-0.074-0.656s-0.035-0.759-0.045-1.375   c-0.01-0.615-0.02-1.12-0.029-1.514s-0.018-0.753-0.021-1.078c-0.005-0.325-0.013-0.591-0.022-0.798   C39.365-30.206,39.355-30.305,39.345-30.294z M46.256-40.289c0.062-0.684,0.092-1.226,0.092-1.627c0-0.527-0.048-0.894-0.143-1.099   c-0.095-0.205-0.23-0.308-0.409-0.308c-0.317,0-0.605,0.198-0.863,0.593c-0.259,0.395-0.466,0.905-0.623,1.53   s-0.328,1.303-0.513,2.036s-0.318,1.451-0.403,2.154c-0.085,0.703-0.153,1.336-0.204,1.9s-0.087,0.965-0.109,1.203   c-0.042,0.485-0.077,0.953-0.104,1.403s-0.045,0.861-0.057,1.232c-0.011,0.371-0.016,0.695-0.016,0.972c0,0.277,0,0.49,0,0.638   v0.148c0.543-1.301,1.043-2.597,1.501-3.888c0.189-0.55,0.378-1.125,0.564-1.722c0.187-0.598,0.371-1.19,0.555-1.778   c0.183-0.588,0.338-1.17,0.465-1.747C46.117-39.223,46.206-39.771,46.256-40.289z"/>
	<path fill="#000000" d="M48.677-21.657c0-0.645,0.039-1.389,0.117-2.233c0.078-0.846,0.176-1.772,0.293-2.783   c0.117-1.011,0.249-1.921,0.396-2.732c0.146-0.811,0.288-1.504,0.425-2.08c0.107-0.449,0.315-0.825,0.623-1.128   c0.308-0.303,0.725-0.454,1.252-0.454s0.894,0.161,1.099,0.483c0.205,0.322,0.309,0.752,0.309,1.289   c0,0.146-0.016,0.344-0.044,0.593c-0.029,0.249-0.066,0.522-0.11,0.82c-0.044,0.298-0.09,0.605-0.139,0.923   s-0.096,0.679-0.14,1.084c-0.044,0.405-0.081,0.708-0.109,0.908c-0.029,0.2-0.044,0.334-0.044,0.403h0.293   c0.059-0.107,0.15-0.281,0.277-0.521s0.273-0.583,0.439-1.033c0.166-0.45,0.344-0.847,0.535-1.194   c0.19-0.347,0.369-0.679,0.535-0.996s0.316-0.598,0.453-0.842c0.138-0.244,0.239-0.425,0.309-0.542   c0.312-0.527,0.669-0.889,1.069-1.084c0.399-0.195,0.845-0.293,1.333-0.293c0.487,0,0.876,0.205,1.164,0.615   c0.289,0.41,0.433,0.977,0.433,1.699c0,0.107-0.022,0.288-0.066,0.542s-0.1,0.557-0.168,0.908   c-0.067,0.351-0.144,0.806-0.227,1.362s-0.159,1.054-0.228,1.494c-0.067,0.439-0.125,0.874-0.168,1.305   c-0.043,0.43-0.065,0.824-0.065,1.187c0,0.604,0.076,1.104,0.227,1.494c0.151,0.39,0.388,0.586,0.71,0.586   c0.117,0,0.283-0.044,0.498-0.132c0.322-0.117,0.527-0.221,0.615-0.309c0.43-0.332,0.654-0.492,0.674-0.482   c0.029,0.01,0.356-0.186,0.981-0.586c0.78-0.498,1.714-1.108,2.798-1.831l-0.016,3.28l-0.731,0.558   c-0.06,0.049-0.519,0.303-1.377,0.762c-1.24,0.664-2.018,1.063-2.329,1.201c-0.762,0.342-1.235,0.537-1.421,0.586   c-0.488,0.156-1.001,0.233-1.538,0.233s-0.989-0.387-1.355-1.164c-0.365-0.777-0.549-1.912-0.549-3.406   c0-0.586,0.039-1.218,0.117-1.896c0.078-0.68,0.176-1.41,0.293-2.19h-0.234l-3.838,7.616c-0.205,0.41-0.425,0.685-0.658,0.82   c-0.244,0.146-0.527,0.221-0.851,0.221c-0.399,0-0.723-0.086-0.967-0.256c-0.244-0.172-0.432-0.4-0.564-0.688   c-0.132-0.288-0.22-0.615-0.264-0.981C48.7-20.888,48.677-21.267,48.677-21.657z"/>
	<path fill="#000000" d="M71.88-29.89c0.283,0.566,0.496,1.165,0.638,1.794c0.141,0.629,0.212,1.34,0.212,2.131   c0,0.576-0.063,1.156-0.19,1.742c-0.127,0.587-0.31,1.152-0.549,1.699s-0.532,1.061-0.879,1.539   c-0.347,0.478-0.742,0.894-1.188,1.244c-0.444,0.352-0.93,0.631-1.458,0.836c-0.527,0.204-1.089,0.307-1.685,0.307   c-0.859,0-1.594-0.188-2.205-0.563s-1.111-0.866-1.501-1.472s-0.676-1.289-0.857-2.051c-0.181-0.762-0.271-1.533-0.271-2.314   c0-1.289,0.161-2.4,0.483-3.333c0.321-0.933,0.783-1.743,1.384-2.432c0.6-0.689,1.335-1.23,2.205-1.626s1.846-0.593,2.93-0.593   c0.928,0,1.797,0.144,2.607,0.432c0.81,0.288,1.569,0.674,2.277,1.157s1.367,1.091,1.979,1.824c0.61,0.733,1.179,1.431,1.707,2.095   l-0.278,2.065c-0.264-0.352-0.62-0.731-1.069-1.143c-0.448-0.411-0.925-0.864-1.428-1.362s-0.999-0.92-1.487-1.267   c-0.487-0.347-0.907-0.637-1.26-0.872L71.88-29.89z M67.354-21.408c0.332,0,0.653-0.168,0.967-0.505   c0.312-0.337,0.586-0.762,0.82-1.274c0.233-0.512,0.422-1.133,0.563-1.859c0.143-0.727,0.212-1.375,0.212-1.941   c0-0.449-0.034-0.867-0.103-1.252c-0.069-0.385-0.171-0.72-0.309-1.003c-0.137-0.283-0.312-0.508-0.526-0.674   s-0.475-0.249-0.776-0.249c-0.4,0-0.781,0.171-1.143,0.513c-0.362,0.342-0.68,0.779-0.952,1.311   c-0.273,0.532-0.488,1.121-0.646,1.765c-0.156,0.644-0.233,1.372-0.233,2.183c0,0.41,0.039,0.797,0.116,1.158   c0.078,0.36,0.2,0.676,0.366,0.944s0.387,0.483,0.659,0.646C66.644-21.484,66.973-21.408,67.354-21.408z"/>
	<path fill="#000000" d="M87.686-21.876c-0.939,0.547-1.775,1.025-2.509,1.436c-0.732,0.412-1.386,0.752-1.958,1.025   c-0.571,0.273-1.08,0.479-1.524,0.615c-0.444,0.136-0.85,0.205-1.21,0.205c-0.738,0-1.39-0.225-1.953-0.674   c-0.564-0.449-1.034-1.097-1.413-1.941c-0.379-0.846-0.663-1.868-0.852-3.068c-0.189-1.201-0.284-2.555-0.284-4.059   c0-0.586,0.023-1.211,0.073-1.875c0.048-0.664,0.115-1.323,0.202-1.978c-0.295-0.043-0.523-0.084-0.686-0.122   s-0.334-0.076-0.516-0.114c-0.183-0.038-0.413-0.079-0.693-0.123c-0.28-0.043-0.687-0.098-1.216-0.163   c-0.236-0.032-0.418-0.095-0.546-0.187c-0.127-0.093-0.222-0.201-0.28-0.326c-0.06-0.125-0.093-0.255-0.104-0.392   c-0.01-0.136-0.015-0.252-0.015-0.351c0-0.154,0.096-0.271,0.287-0.353c0.191-0.082,0.437-0.142,0.736-0.182   c0.299-0.04,0.628-0.063,0.985-0.068c0.358-0.005,0.702-0.002,1.031,0.007c0.329,0.009,0.624,0.017,0.884,0.022   c0.261,0.005,0.439-0.002,0.537-0.022c0.263-1.314,0.597-2.588,1.002-3.819c0.404-1.232,0.857-2.328,1.36-3.287   c0.502-0.959,1.05-1.729,1.645-2.308c0.596-0.579,1.219-0.869,1.872-0.869c0.42,0,0.805,0.117,1.151,0.352   c0.347,0.234,0.642,0.546,0.887,0.937c0.244,0.39,0.434,0.846,0.564,1.368s0.197,1.066,0.197,1.632   c0,0.468-0.067,0.962-0.204,1.483c-0.14,0.522-0.325,1.053-0.56,1.592s-0.51,1.086-0.828,1.641   c-0.317,0.554-0.651,1.104-1.004,1.648c0.088-0.032,0.235-0.039,0.44-0.019s0.441,0.034,0.71,0.042   c0.268,0.008,0.559,0.016,0.872,0.023c0.312,0.007,0.614,0.017,0.907,0.026s0.566,0.02,0.82,0.029   c0.254,0.009,0.464,0.02,0.63,0.029c0.195,0.011,0.337,0.12,0.425,0.326c0.089,0.206,0.133,0.467,0.133,0.783   c0,0.365-0.099,0.662-0.293,0.891c-0.195,0.229-0.411,0.344-0.646,0.344h-5.631c-0.285,0.391-0.571,0.774-0.861,1.15   c-0.289,0.376-0.557,0.715-0.802,1.018c-0.039,0.604-0.073,1.201-0.103,1.787c-0.011,0.254-0.021,0.515-0.029,0.784   c-0.009,0.27-0.021,0.535-0.029,0.799c-0.009,0.263-0.017,0.518-0.021,0.762s-0.007,0.469-0.007,0.674   c0,0.527,0.049,0.973,0.146,1.333c0.098,0.361,0.24,0.657,0.427,0.886c0.187,0.229,0.414,0.396,0.685,0.498   c0.27,0.103,0.57,0.154,0.903,0.154c0.205,0,0.462-0.049,0.771-0.146c0.308-0.098,0.645-0.231,1.012-0.402   c0.367-0.172,0.752-0.374,1.158-0.608c0.406-0.233,0.806-0.491,1.202-0.769c0.396-0.278,0.774-0.571,1.137-0.879   c0.361-0.309,0.689-0.623,0.982-0.945V-21.876z M82.998-40.426c0-0.107-0.007-0.226-0.021-0.357   c-0.016-0.131-0.048-0.255-0.097-0.372c-0.049-0.117-0.125-0.214-0.228-0.292c-0.104-0.078-0.247-0.116-0.434-0.116   c-0.255,0-0.513,0.223-0.771,0.669s-0.51,1.016-0.75,1.708c-0.24,0.693-0.466,1.457-0.676,2.291   c-0.211,0.833-0.404,1.643-0.581,2.428c0.146,0.015,0.294,0.027,0.44,0.038c0.147,0.011,0.3,0.024,0.456,0.038   c0.294-0.492,0.602-1.025,0.919-1.599c0.318-0.574,0.605-1.139,0.86-1.693c0.255-0.555,0.466-1.073,0.633-1.556   C82.915-39.723,82.998-40.118,82.998-40.426z"/>
	<path fill="#000000" d="M91.26-26.67c0.353-0.457,0.737-0.959,1.157-1.506c0.42-0.546,0.833-1.068,1.238-1.565   s0.812-1.014,1.223-1.551s0.713-0.875,0.908-1.014c0.303-0.219,0.674-0.405,1.113-0.56c0.438-0.154,0.928-0.231,1.465-0.231   c0.272,0,0.535,0.065,0.784,0.194c0.249,0.129,0.466,0.313,0.651,0.552c0.187,0.239,0.332,0.527,0.439,0.865   c0.106,0.338,0.161,0.715,0.161,1.133c0,0.408-0.134,0.893-0.403,1.454c-0.269,0.561-0.549,1.051-0.842,1.468   c-0.293,0.417-0.61,0.834-0.952,1.252c-0.342,0.416-0.659,0.838-0.952,1.26s-0.537,0.842-0.731,1.26   c-0.195,0.418-0.293,0.835-0.293,1.252c0,0.358,0.085,0.614,0.256,0.768c0.171,0.154,0.437,0.231,0.798,0.231   c0.195,0,0.408-0.067,0.637-0.2c0.229-0.135,0.466-0.312,0.71-0.529c0.244-0.219,0.491-0.463,0.74-0.73   c0.249-0.27,0.488-0.542,0.718-0.82c0.23-0.277,0.447-0.543,0.652-0.797s0.391-0.471,0.557-0.648l0.879,3.652   c-0.303,0.412-0.686,0.793-1.149,1.144s-0.968,0.657-1.51,0.917s-1.104,0.463-1.685,0.609c-0.581,0.146-1.14,0.219-1.677,0.219   c-0.703,0-1.277-0.08-1.722-0.239c-0.443-0.16-0.793-0.371-1.047-0.635c-0.254-0.265-0.427-0.562-0.52-0.896   c-0.093-0.332-0.139-0.676-0.139-1.031c0-0.229,0.026-0.508,0.081-0.842c0.054-0.332,0.155-0.707,0.308-1.125   c0.151-0.416,0.364-0.877,0.637-1.378c0.273-0.502,0.63-1.04,1.069-1.618c0.176-0.179,0.337-0.34,0.482-0.483   c0.146-0.144,0.273-0.273,0.382-0.388c0.107-0.115,0.189-0.221,0.249-0.32c0.059-0.1,0.088-0.204,0.088-0.313   c0-0.209-0.037-0.377-0.11-0.507s-0.178-0.194-0.315-0.194c-0.166,0-0.381,0.109-0.645,0.328c-0.273,0.229-0.562,0.612-0.864,1.148   l-4.307,7.524c-0.234,0.354-0.469,0.604-0.703,0.75c-0.234,0.146-0.508,0.219-0.82,0.219c-0.42,0-0.752-0.085-0.996-0.256   c-0.243-0.17-0.43-0.399-0.557-0.688s-0.208-0.625-0.242-1.006s-0.051-0.788-0.051-1.22c0-0.565,0.02-1.315,0.059-2.248   c0.039-0.934,0.099-1.958,0.177-3.074c0.078-1.117,0.183-2.285,0.314-3.506c0.132-1.221,0.291-2.407,0.477-3.558   c0.071-0.396,0.161-0.88,0.267-1.454c0.106-0.574,0.249-1.185,0.429-1.833c0.181-0.648,0.37-1.33,0.569-2.044   s0.442-1.405,0.73-2.072s0.612-1.303,0.975-1.906c0.362-0.604,0.767-1.132,1.217-1.585s0.943-0.811,1.481-1.074   c0.537-0.263,1.124-0.395,1.759-0.395c0.498,0,0.908,0.081,1.229,0.241c0.322,0.161,0.579,0.384,0.77,0.671   c0.189,0.287,0.325,0.629,0.403,1.028c0.077,0.398,0.116,0.831,0.116,1.297c0,0.836-0.104,1.735-0.314,2.699   c-0.21,0.964-0.477,1.93-0.798,2.897c-0.322,0.969-0.675,1.91-1.056,2.824s-0.747,1.74-1.099,2.477   c-0.352,0.737-0.662,1.359-0.93,1.865c-0.27,0.506-0.447,0.838-0.535,0.996l-1.743,2.625L91.26-26.67z M94.126-43.233   c-0.316,0-0.589,0.098-0.816,0.292c-0.229,0.194-0.443,0.472-0.647,0.832c-0.203,0.36-0.406,0.799-0.609,1.315   c-0.202,0.516-0.433,1.091-0.69,1.724c-0.139,0.568-0.283,1.154-0.43,1.756c-0.147,0.602-0.266,1.198-0.355,1.788   c-0.09,0.59-0.178,1.17-0.264,1.741c-0.087,0.571-0.167,1.106-0.243,1.604c-0.146,1.23-0.264,2.441-0.353,3.632   c0.215-0.654,0.45-1.365,0.707-2.133s0.511-1.526,0.763-2.274c0.251-0.748,0.487-1.452,0.71-2.111   c0.222-0.659,0.406-1.218,0.555-1.677c0.069-0.215,0.167-0.483,0.296-0.806c0.129-0.323,0.268-0.669,0.415-1.04   c0.148-0.371,0.296-0.757,0.444-1.157c0.147-0.4,0.284-0.786,0.407-1.157c0.122-0.371,0.224-0.718,0.303-1.04   c0.079-0.322,0.119-0.596,0.119-0.82C94.438-43.078,94.334-43.233,94.126-43.233z"/>
	<path fill="#000000" d="M116.146-22.226c-0.226,0.316-0.525,0.687-0.901,1.111c-0.376,0.426-0.798,0.83-1.267,1.215   c-0.47,0.385-0.973,0.711-1.51,0.979c-0.536,0.268-1.073,0.4-1.61,0.4c-0.648,0-1.189-0.205-1.623-0.617   c-0.435-0.41-0.809-1.008-1.123-1.79c-0.236,0.271-0.527,0.546-0.871,0.825c-0.345,0.28-0.721,0.535-1.129,0.762   c-0.409,0.227-0.834,0.413-1.277,0.558c-0.442,0.146-0.886,0.218-1.329,0.218c-0.469,0-0.925-0.097-1.37-0.289   c-0.443-0.191-0.837-0.468-1.179-0.828c-0.342-0.358-0.615-0.797-0.82-1.314c-0.204-0.518-0.308-1.102-0.308-1.751   c0-0.729,0.104-1.479,0.311-2.248c0.205-0.769,0.524-1.601,0.958-2.496c0.432-0.896,0.896-1.669,1.393-2.321   c0.496-0.652,1.039-1.221,1.628-1.708s1.211-0.874,1.864-1.161c0.652-0.287,1.317-0.431,1.997-0.431   c0.226,0,0.402,0.044,0.529,0.133c0.128,0.089,0.233,0.19,0.317,0.303c0.083,0.114,0.165,0.225,0.243,0.333   c0.079,0.109,0.177,0.188,0.295,0.237c0.118,0.049,0.238,0.081,0.361,0.096c0.123,0.015,0.248,0.021,0.376,0.021   c0.107,0,0.218-0.002,0.331-0.007c0.112-0.005,0.224-0.008,0.332-0.008c0.146,0,0.284,0.015,0.412,0.044   c0.127,0.03,0.24,0.094,0.339,0.193c0.098,0.099,0.174,0.237,0.228,0.415c0.054,0.177,0.081,0.419,0.081,0.725   c0,0.467-0.049,0.985-0.146,1.554c-0.097,0.569-0.209,1.152-0.335,1.749s-0.27,1.278-0.431,2.042s-0.242,1.408-0.242,1.932   c0,0.449,0.042,0.799,0.125,1.051s0.262,0.378,0.535,0.378c0.205,0,0.42-0.052,0.646-0.152c0.225-0.101,0.451-0.235,0.681-0.399   c0.229-0.164,0.459-0.351,0.688-0.559c0.229-0.208,0.447-0.423,0.652-0.646c0.479-0.522,0.962-1.113,1.45-1.771L116.146-22.226z    M103.579-23.373c0,0.251,0.017,0.496,0.051,0.732s0.096,0.449,0.185,0.635c0.088,0.188,0.205,0.337,0.352,0.453   c0.146,0.115,0.333,0.174,0.559,0.174c0.361,0,0.688-0.157,0.982-0.473c0.293-0.313,0.548-0.692,0.763-1.135   c0.216-0.441,0.39-0.898,0.521-1.371s0.217-0.865,0.257-1.181l1.092-4.762c-0.399,0-0.791,0.099-1.172,0.298   c-0.381,0.198-0.74,0.467-1.077,0.806c-0.337,0.339-0.646,0.726-0.93,1.162c-0.283,0.436-0.562,0.974-0.835,1.612   s-0.466,1.199-0.579,1.684C103.635-24.253,103.579-23.798,103.579-23.373z"/>
</g>
<g>
	<g id="_x39_uj6rS_1_">
		<path fill="#000000" d="M7.132,17.347c-1.154-0.405-2.706,0.055-3.335,0.699c-0.179,0.183-0.396,0.511-0.381,0.826    c0.028,0.58,0.949,0.855,1.588,0.984c1.449,0.293,3.044,0.312,4.16,0.922c0.521,0.285,1.104,0.823,1.366,1.174    c0.433,0.584,0.717,1.58,0.572,2.7c-0.317,2.448-2.396,3.868-4.986,4.065c-1.728,0.131-3.301-0.204-4.351-0.889    c-0.793-0.518-1.403-1.365-1.525-2.352c-0.029-0.233-0.026-0.622,0-0.793c0.114-0.737,0.965-1.57,2.097-1.43    c0.376,0.047,0.64,0.215,0.826,0.445c0.305,0.377,0.266,0.996,0.699,1.429c0.216,0.218,0.764,0.487,1.271,0.54    c0.919,0.095,2.101-0.123,2.477-0.699c0.782-1.195-1.249-1.428-2.033-1.556c-2.83-0.466-5.597-1.124-5.336-4.637    c0.207-2.785,2.559-4.437,5.463-4.605c2.545-0.147,4.614,0.901,4.828,3.176c0.154,1.646-0.94,2.74-2.477,2.414    C7.202,19.58,6.41,18.336,7.132,17.347z"/>
	</g>
	<path fill="#000000" d="M62.167,23.456c3.667-0.763,4.043,4.461,1.1,4.946C59.703,28.99,58.995,24.113,62.167,23.456z"/>
	<path fill="#000000" d="M33.145,23.346c-0.167-2.121-0.991-6.58,0.659-8.136c1.135-1.069,3.424-0.598,3.848,0.659   c0.833,2.474-2.458,8.655,0.88,9.346c2.049,0.422,2.855-0.879,3.847-1.869c-0.193-3.269-1.233-8.547,2.419-8.136   c1.18,0.134,1.604,1.149,2.088,2.198c2.273-2.027,5.921-4.173,8.796-1.539c1.474,1.352,2.487,3.85,2.309,6.707   c-0.222,3.556-3.102,6.631-6.487,6.706c-1.453,0.03-3.104-0.374-3.518-1.649c-0.432-1.341,0.23-2.473,0.879-2.857   c1.01-0.598,3.006,0.105,4.067-0.77c1.328-1.095,0.567-5.019-0.77-5.278c-1.434-0.277-2.664,1.352-3.298,2.089   c-0.822,0.96-1.901,2.295-2.088,3.738c-0.381,2.969,0.191,7.882,0,11.322c-0.095,1.722-0.552,3.709-1.539,4.067   c-3.203,1.159-2.858-3.386-2.748-5.825c0.105-2.303-0.082-4.426,0-6.047c-1.966,1.338-6.838,1.388-7.915-1.099   c-2.297,2.491-8.873,3.56-9.673-0.88c-0.411-2.277,1.334-7.538-0.55-7.916c-1.26-0.251-2.761,1.785-3.298,2.528   c-0.8,1.105-1.912,2.851-2.088,3.739c-0.332,1.662,0.121,3.221-0.88,3.957c-0.462,0.339-1.671,0.451-2.198,0.221   c-1.66-0.73-1.743-8.941-1.319-11.875c0.24-1.675,1.808-2.869,3.777-2.02c0.893,0.385,0.523,2.484,0.51,3.889   c1.521-1.706,4.322-5.841,8.244-3.957c2.189,1.053,2.108,3.685,1.759,7.035c-0.147,1.42-0.571,3.093,0.439,3.52   C30.927,25.9,32.374,24.115,33.145,23.346z"/>
	<path fill="#000000" d="M35.563,8.065c2.911-0.583,3.869,2.864,1.759,4.397c-1.343,0.978-3.796,0.438-4.066-1.319   C32.98,9.349,34.059,8.366,35.563,8.065z"/>
	<path fill="#000000" d="M102.89,24.182c-0.097-0.842-0.699-1.567-1.759-1.429c-1.938,0.255-1.857,1.304-5.276,3.077   c-0.371-3.012,0.495-6.243,0-9.675c-0.197-1.363-1.567-2.623-3.188-1.649c-1.114,0.67-0.91,4.731-1.539,6.158   c-0.554,1.251-2.17,4.008-4.289,3.408c-3.001-0.854,1.763-11.595-3.518-9.786c-2.509,0.862-1.467,6.283-1.429,8.577   c-1.959,1.236-5.795,3.729-7.035,0.439c1.996-3.175,3.627-6.486,4.727-11.105c0.838-3.511,1.196-8.048-0.66-10.553   c-0.967-1.308-3.053-1.849-4.727-0.989c-5.531,2.845-5.678,16.647-3.275,22.238c-0.794,1.079-3.062,2.569-3.21,3.597   c-0.136,0.954,0.896,2.123,1.869,2.088c1.116-0.037,2.444-1.418,3.188-2.309c1.645,3.545,8.317,2.842,10.333,0.11   c1.055,1.154,2.706,2.165,4.617,2.089c1.998-0.082,3.216-1.594,4.179-2.418c0.07,0.749,0.09,1.189,0.11,1.979   c-1.867,1.097-3.839,2.04-5.279,3.847c-2.776,3.485-0.719,8.52,4.07,8.244c4.711-0.271,5.419-5.261,5.386-10.552   C98.102,28.541,103.231,27.154,102.89,24.182z M73.869,7.581c0.415-1.484,2.165-3.874,2.638-0.989   c0.792,4.823-1.411,9.35-2.857,12.421C73.141,15.724,72.93,10.945,73.869,7.581z M91.239,35.943c-0.367,0.222-0.866,0.095-1.1-0.11   c-1.657-1.464,0.84-3.479,1.979-4.286C92.313,33.063,92.153,35.392,91.239,35.943z"/>
</g>
</svg>